<?xml version="1.0" encoding="UTF-8" standalone="no" ?>
<!DOCTYPE svg PUBLIC "-//W3C//DTD SVG 1.1//EN" "http://www.w3.org/Graphics/SVG/1.1/DTD/svg11.dtd">
<svg xmlns="http://www.w3.org/2000/svg" xmlns:xlink="http://www.w3.org/1999/xlink" version="1.1" width="162.22639999999998" height="132.66896" xml:space="preserve">
<desc>Created with Fabric.js 1.6.0-rc.1</desc>
<defs></defs>
<g style="stroke: none; stroke-width: 1; stroke-dasharray: none; stroke-linecap: butt; stroke-linejoin: miter; stroke-miterlimit: 10; fill: none; fill-rule: nonzero; opacity: 1;" transform="translate(10 10) scale(1.14 1.14)" >
  <path d="M 1.3 33.3 C 16.6 96.6 77.4 80.6 62 17.1 c -2 -8.5 -7.1 -18.8 -15.1 -16.8 c -7.2 1.7 -9.5 7 -18.3 9.1 c -9 2.2 -13 -1.6 -21.9 0.6 l -1.5 0.4 C -1.6 12 -0.4 26.5 1.3 33.3 L 1.3 33.3 z" style="stroke: none; stroke-width: 1; stroke-dasharray: none; stroke-linecap: butt; stroke-linejoin: miter; stroke-miterlimit: 10; fill: #f02bc2; fill-rule: nonzero; opacity: 1;" transform=" matrix(1 0 0 1 0 0) " stroke-linecap="round" />
  <path d="M 21.3 26.1 c 3.8 1.1 6.2 4 5.5 6.5 c -0.7 2.5 -4.4 3.6 -8.1 2.5 c -3.8 -1.1 -6.2 -4 -5.5 -6.5 C 13.9 26.1 17.6 25 21.3 26.1 z" style="stroke: none; stroke-width: 1; stroke-dasharray: none; stroke-linecap: butt; stroke-linejoin: miter; stroke-miterlimit: 10; fill: #1F1A17; fill-rule: nonzero; opacity: 1;" transform=" matrix(1 0 0 1 0 0) " stroke-linecap="round" />
  <path d="M 41.3 21.3 c -2.8 2.7 -3.7 6.4 -1.9 8.3 c 1.8 1.9 5.5 1.2 8.4 -1.5 c 2.8 -2.7 3.7 -6.4 1.9 -8.3 C 47.8 17.9 44.1 18.6 41.3 21.3 L 41.3 21.3 z" style="stroke: none; stroke-width: 1; stroke-dasharray: none; stroke-linecap: butt; stroke-linejoin: miter; stroke-miterlimit: 10; fill: #1F1A17; fill-rule: nonzero; opacity: 1;" transform=" matrix(1 0 0 1 0 0) " stroke-linecap="round" />
  <path d="M 51.8 35.9 c 0.2 0.6 0.4 1.3 0.6 1.9 c 2.5 10.3 -3.1 20.5 -12.4 22.8 c -9.4 2.3 -19 -4.3 -21.5 -14.6 c -0.2 -0.7 -0.3 -1.3 -0.4 -2 c 2.7 7.4 11.4 11.7 20.1 9.5 C 47 51.5 52.8 43.8 51.8 35.9 z" style="stroke: none; stroke-width: 1; stroke-dasharray: none; stroke-linecap: butt; stroke-linejoin: miter; stroke-miterlimit: 10; fill: #1F1A17; fill-rule: nonzero; opacity: 1;" transform=" matrix(1 0 0 1 0 0) " stroke-linecap="round" />
  <path d="M 61.1 36.3 C 46 99.6 107.3 113 122.6 49.4 c 2 -8.5 2.2 -20 -5.8 -21.9 c -7.2 -1.7 -11.7 1.9 -20.4 -0.2 c -9 -2.1 -10.8 -7.3 -19.8 -9.5 l -1.5 -0.4 C 68.3 15.9 62.8 29.4 61.1 36.3 L 61.1 36.3 z" style="stroke: none; stroke-width: 1; stroke-dasharray: none; stroke-linecap: butt; stroke-linejoin: miter; stroke-miterlimit: 10; fill: #118cd9; fill-rule: nonzero; opacity: 1;" transform=" matrix(1 0 0 1 0 0) " stroke-linecap="round" />
  <path d="M 80.3 47.2 c 3.8 -1.1 6.2 -4 5.5 -6.5 c -0.7 -2.5 -4.4 -3.6 -8.1 -2.5 c -3.8 1.1 -6.2 4 -5.5 6.5 C 72.9 47.2 76.5 48.3 80.3 47.2 z" style="stroke: none; stroke-width: 1; stroke-dasharray: none; stroke-linecap: butt; stroke-linejoin: miter; stroke-miterlimit: 10; fill: #1F1A17; fill-rule: nonzero; opacity: 1;" transform=" matrix(1 0 0 1 0 0) " stroke-linecap="round" />
  <path d="M 100.2 51.9 c -2.8 -2.7 -3.7 -6.4 -1.9 -8.3 c 1.8 -1.9 5.5 -1.2 8.4 1.5 c 2.8 2.7 3.7 6.4 1.9 8.3 C 106.8 55.3 103.1 54.6 100.2 51.9 L 100.2 51.9 z" style="stroke: none; stroke-width: 1; stroke-dasharray: none; stroke-linecap: butt; stroke-linejoin: miter; stroke-miterlimit: 10; fill: #1F1A17; fill-rule: nonzero; opacity: 1;" transform=" matrix(1 0 0 1 0 0) " stroke-linecap="round" />
  <path d="M 100.6 79.6 c 0.2 -0.4 0.3 -0.8 0.4 -1.3 c 1.6 -6.9 -4.6 -14.2 -14 -16.5 c -9.4 -2.2 -18.3 1.5 -19.9 8.4 c -0.1 0.4 -0.2 0.9 -0.2 1.3 c 2.1 -4.9 10.3 -7.1 19 -5 C 94.7 68.6 100.9 74.3 100.6 79.6 L 100.6 79.6 z" style="stroke: none; stroke-width: 1; stroke-dasharray: none; stroke-linecap: butt; stroke-linejoin: miter; stroke-miterlimit: 10; fill: #1F1A17; fill-rule: nonzero; opacity: 1;" transform=" matrix(1 0 0 1 0 0) " stroke-linecap="round" />
</g>
  <g transform="translate(47.07 109.04) scale(0.53 0.53)">
   <text font-family="Kronika" font-size="40" font-weight="bold" style="stroke: none; stroke-width: 1; stroke-dasharray: none; stroke-linecap: butt; stroke-linejoin: miter; stroke-miterlimit: 10; fill: #2e2b2e; fill-rule: nonzero; opacity: 1;" ><tspan x="-69.44" y="8.98" style="stroke: none; stroke-width: 0; stroke-dasharray: none; stroke-linecap: butt; stroke-linejoin: miter; stroke-miterlimit: 4; fill: #2e2b2e; fill-rule: ; opacity: 1;">a</tspan><tspan x="-44.72" y="8.98" style="stroke: none; stroke-width: 0; stroke-dasharray: none; stroke-linecap: butt; stroke-linejoin: miter; stroke-miterlimit: 4; fill: #2e2b2e; fill-rule: ; opacity: 1;">n</tspan><tspan x="-22.33" y="8.98" style="stroke: none; stroke-width: 0; stroke-dasharray: none; stroke-linecap: butt; stroke-linejoin: miter; stroke-miterlimit: 4; fill: #2e2b2e; fill-rule: ; opacity: 1;">i</tspan><tspan x="-13.17" y="8.98" style="stroke: none; stroke-width: 0; stroke-dasharray: none; stroke-linecap: butt; stroke-linejoin: miter; stroke-miterlimit: 4; fill: #2e2b2e; fill-rule: ; opacity: 1;">L</tspan><tspan x="12.16" y="8.98" style="stroke: none; stroke-width: 0; stroke-dasharray: none; stroke-linecap: butt; stroke-linejoin: miter; stroke-miterlimit: 4; fill: #2e2b2e; fill-rule: ; opacity: 1;">i</tspan><tspan x="21.32" y="8.98" style="stroke: none; stroke-width: 0; stroke-dasharray: none; stroke-linecap: butt; stroke-linejoin: miter; stroke-miterlimit: 4; fill: #2e2b2e; fill-rule: ; opacity: 1;">k</tspan><tspan x="45.07" y="8.98" style="stroke: none; stroke-width: 0; stroke-dasharray: none; stroke-linecap: butt; stroke-linejoin: miter; stroke-miterlimit: 4; fill: #2e2b2e; fill-rule: ; opacity: 1;">e</tspan></text>
 </g>
</svg>